<?xml version="1.0" encoding="UTF-8"?>
<svg id="Layer_2" data-name="Layer 2" xmlns="http://www.w3.org/2000/svg" viewBox="0 0 1231.71 1113.13">
  <defs>
    <style>
      .cls-1 {
        fill: #fff;
      }

      .cls-2 {
        fill: #2bffa6;
      }

      .cls-3 {
        fill: #0d2f18;
      }
    </style>
  </defs>
  <g id="Maiin_Logo" data-name="Maiin Logo">
    <g>
      <path class="cls-3" d="m454.53,785.1c.59,10.2,4.22,13.52,14.62,13.71,9.21.18,18.43.1,27.64.02,10.75-.1,13.16-2.43,13.21-13.14.09-20.21.02-40.42.02-60.64h-.04c0-20.51-.15-41.02.08-61.53.08-7.5-2.74-10.97-10.49-10.7-9.2.33-18.43.08-27.64.09-15.87.02-17.65,1.8-17.67,18.1-.04,30.59-.04,61.19-.03,91.78,0,7.43-.14,14.87.28,22.28Z"/>
      <path class="cls-3" d="m771.19,667.03c-.69-10.88-4.56-14-15.44-14.07-19.92-.13-39.84.19-59.75-.16-7.82-.14-10.49,2.97-10.38,10.55.3,19.91.1,39.83.1,59.75h.1c0,20.21-.12,40.43.05,60.64.09,11.16,4.05,15,15.11,15.07,17.84.11,35.67.07,53.51.06,14.99,0,17.32-2.27,17.39-17.72.12-24.97.12-49.94.03-74.91-.05-13.07.09-26.17-.73-39.2Z"/>
      <path class="cls-3" d="m1231.19,584.83c-.58-24.75-15.67-40.46-41.1-43.55-7.87-.96-10.45-3.7-10.92-11.41-3.63-59.59-17.46-116.95-39.8-172.19-26.6-65.77-63.9-124.95-112.47-176.71-75.97-80.97-167.62-136.12-275.05-164.57C707.16,4.56,661.63-.4,615.85.03c-45.77-.43-91.31,4.54-136,16.37-107.43,28.45-199.08,83.6-275.05,164.57-48.56,51.76-85.87,110.94-112.47,176.71-22.34,55.25-36.16,112.6-39.8,172.19-.47,7.71-3.05,10.45-10.92,11.41-25.42,3.09-40.52,18.8-41.1,43.55C.15,600.66-.01,616.51,0,632.36c0,15.88.18,31.76.52,47.63.51,23.87,18.42,41.66,41.98,42.58,6.9.27,9.14,2.56,9.18,9.06-.12,14.67-.15,29.35-.15,44.03,0,14.94.04,29.88.04,44.81h.19c0,13.88-.05,27.75-.07,41.63-.02,14.1,0,28.2.12,42.3.28,30.77,21.7,52.02,52.56,52.18,36.01.18,72.03.29,108.04-.17,8.62-.11,15.64,2,22.1,7.41l1.26-.37c13.03,10.93,25.97,21.98,39.37,32.45,101.49,79.31,214.98,118.59,340.69,117.19,125.71,1.4,239.21-37.88,340.69-117.19,13.4-10.47,26.34-21.52,39.37-32.45l1.26.37c6.46-5.41,13.48-7.52,22.1-7.41,36.01.45,72.03.35,108.04.17,30.87-.16,52.28-21.4,52.56-52.18.13-14.1.14-28.2.12-42.3-.02-13.88-.06-27.75-.07-41.63h.19c0-14.94.04-29.88.04-44.81,0-14.68-.02-29.35-.15-44.03.04-6.5,2.28-8.79,9.18-9.06,23.56-.92,41.47-18.71,41.98-42.58.34-15.87.52-31.75.52-47.63.01-15.85-.15-31.7-.52-47.53Zm-979.2,56.45c0,6.08-4.92,11-11,11h-19.39c-2.21,0-4,1.79-4,4v210.49c0,6.08-4.93,11-11,11h-46.1c-6.08,0-11-4.92-11-11v-210.49c0-2.21-1.79-4-4-4h-28.36c-6.07,0-11-4.92-11-11v-45.76c0-6.07,4.93-11,11-11h28.36c2.21,0,4-1.79,4-4v-83.52c0-6.07,4.92-11,11-11h46.1c6.07,0,11,4.93,11,11v83.52c0,2.21,1.79,4,4,4h19.39c6.08,0,11,4.93,11,11v45.76Zm93.56,225.49c0,6.07-4.92,11-11,11h-46.1c-6.08,0-11-4.93-11-11v-210.06c0-6.08,4.92-11,11-11h46.1c6.08,0,11,4.92,11,11v210.06Zm0-315.85c0,6.08-4.92,11-11,11h-46.1c-6.08,0-11-4.92-11-11v-53.8c0-6.08,4.92-11,11-11h46.1c6.08,0,11,4.92,11,11v53.8Zm-26.6-128.3c-26.93-.05-53.86-.05-80.79-.05,0,0-.01,0-.02,0-26.94,0-53.87.02-80.81.02-1.82,0-3.35-.02-4.69-.08-7.85-.35-7.7-2.27-4.63-12.53,3.17-10.57,6.64-20.96,10.42-31.16,2.17-5.85,4.45-11.63,6.82-17.36,11.26-27.22,24.78-53.05,40.51-77.52,19.91-30.98,43.36-59.78,70.24-86.38,1.95-1.93,3.91-3.84,5.9-5.75,4.49-4.31,9.02-8.52,13.61-12.65,68.83-61.83,149.11-102.62,241.19-118.89,41.02-7.25,81.42-8.92,121.13-5.17.55.05,1.1.11,1.65.16,5.04.5,10.08,1.08,15.1,1.75,10.06,1.34,20.06,3.05,30.03,5.09,3.19.65,6.37,1.34,9.55,2.07,32.15,7.33,63.83,18.28,94.98,32.81,16.5,7.7,32.41,16.19,47.76,25.43,20.66,12.43,40.3,26.25,58.91,41.47,18.42,15.07,35.86,31.48,52.29,49.27,19.29,20.89,36.66,42.86,52.01,65.95,4.19,6.3,8.22,12.68,12.1,19.15,3.05,5.07,5.99,10.21,8.84,15.39,2,3.62,3.96,7.26,5.86,10.93,2.86,5.51,5.59,11.09,8.24,16.71,1.64,3.49,3.25,6.99,4.81,10.53,1.31,2.98,2.59,5.99,3.84,9,8.46,20.33,15.58,41.4,21.3,63.24.17.65.34,1.31.44,1.98.03.21.09.42.1.63,0,.15-.02.31-.08.51-.07.22-.18.49-.34.87-.18.43-.41.99-.69,1.76-15.78-8.87-32.59-7.22-49.18-7.22-60.12,0-120.25-.04-180.37.05-18.22.03-32.47,5.76-41.85,16.24-.55.62-1.09,1.25-1.6,1.9-1.04,1.3-2,2.66-2.9,4.09-.45.71-.88,1.44-1.29,2.19-4.55,8.19-6.96,18.27-6.98,29.98-.03,12.2-.37,24.42.12,36.6.02.47.02.93.02,1.36,0,.02,0,.04,0,.06-.03,1.7-.27,3.08-.73,4.2-.47,1.13-1.16,1.98-2.08,2.61-1.62,1.1-3.97,1.51-7.1,1.51-22.91,0-49.15.58-72.05.79l.37-198.73c0-25.25-20.47-45.71-45.71-45.71h-46.14c-25.25,0-45.71,20.47-45.71,45.71v97.48h-73.89v-.35c-1.13-.02-2.25-.05-3.38-.06-12.01-.11-24.03.04-36.04.11-.03,0-.06,0-.08,0-.95,0-1.88.04-2.81.09-1.68.09-3.33.25-4.94.48-1.67.24-3.32.56-4.92.94-21.67,5.22-36.65,23.46-37.13,47.2-.22,10.93-.34,21.88-.24,32.81.03,3.65.09,7.29.18,10.93.07,2.94-.38,5.06-1.39,6.52-1.45,2.09-4.07,2.84-8.09,2.67-2.23-.09-4.46-.16-6.69-.21-2.38-.05-4.77-.08-7.15-.08-4.62,0-9.23.1-13.84.3-6.76.29-8.73-2.61-8.75-8.98-.04-13.78.41-27.67-.69-41.37-.16-1.96-.35-3.91-.57-5.86-.18-1.58-.43-3.12-.74-4.63-.06-.28-.11-.56-.17-.84-.32-1.48-.68-2.92-1.11-4.33-6.59-21.78-25.93-35.61-49.92-35.65Zm474.14,445.62c-.02.44-.04.86-.06,1.26-.03.39-.06.76-.09,1.12-.76,7.46-4.05,7.64-17.52,7.62h-.02c-1.28,0-2.65,0-4.12,0-46.13-.01-92.27.07-138.4.07-6.48,0-10.4-.67-12.69-2.96-2.29-2.3-2.97-6.23-2.97-12.76-.01-83.78,0-167.57,0-251.35s-.01-167.57,0-251.35c0-3.39.21-6.12.73-8.33,1.07-4.51,3.48-6.77,8.14-7.78,2.17-.47,4.82-.68,8.07-.71,12.2-.1,24.41-.23,36.61-.21,4.46,0,7.67.41,9.94,1.53,3.38,1.67,4.67,4.95,4.94,10.9.03.71.05,1.45.05,2.24.12,24.4.06,48.81.07,73.22.02,46.13.01,92.26.05,138.4,0,8.58.67,12.45,4.52,14.14.17.08.38.13.56.2,2.3.84,5.59,1.06,10.37,1.06,18.96.02,37.89.01,56.58.01,11.22,0,22.37,0,33.35,0,0,8.95-.06,17.26-.06,25.33,0,1.61,0,3.22.01,4.81,0,1.6.02,3.19.03,4.78.02,1.59.04,3.17.06,4.76.16,9.94,3.58,16.33,10.57,19.47,2.78,1.25,6.11,2.01,10.06,2.24,3.99.24,7.99.31,11.99.29.02,0,.03,0,.05,0,2.04-.01,4.08-.05,6.12-.1,1.98-.05,3.96-.11,5.94-.17,1.82-.06,3.29.17,4.44.73,1.29.63,2.14,1.72,2.61,3.29.22.74.38,1.57.43,2.54.1,2.15.28,4.29.46,6.44.23,2.77.43,5.54.51,8.31.02.72.06,1.45.06,2.17-.12,22.77-.25,45.55-.41,68.32,0,.33,0,.66,0,.98-.16,22.72-.34,45.44-.56,68.17-.02,2.4-.14,4.59-.36,6.58-.11,1-.25,1.95-.41,2.85-.21,1.13-.47,2.16-.77,3.14-1.61,5.32-4.58,8.64-9.47,10.47-1.3.48-2.75.85-4.33,1.14-1.94.35-4.07.58-6.47.67-1.08.04-2.22.06-3.4.05-21.08-.15-25.14,3.81-25.14,24.7,0,4.98.08,8.82-.03,11.78Zm-360.24-19.69c-.31-10.64-5.92-16.34-16.66-16.85-2.37-.11-4.75-.11-7.14-.08-2.38.03-4.76.09-7.14.09-1.32,0-2.56-.08-3.74-.21-.57-.06-1.12-.15-1.66-.24-.48-.09-.95-.18-1.41-.29-7.89-1.94-11.92-7.71-12.03-17.73-.13-11.9-.17-23.8-.18-35.7s0-23.8-.02-35.71c-.02-14.13.01-28.26,0-42.4h0v-.06c0-14.11-.06-28.23-.25-42.34-.07-5.13,1.05-8.24,3.89-9.74.28-.15.58-.28.9-.4,1.59-.59,3.62-.78,6.15-.63,7.7.46,15.49.4,23.19-.19,4.25-.32,7.75-1.2,10.56-2.67,2.25-1.17,4.07-2.73,5.47-4.68,2.46-3.42,3.67-8.05,3.78-14.02.09-4.76.07-9.52.13-14.28.14-10.12-.8-15.72-4.81-19.24-.89-.78-1.93-1.46-3.15-2.07-3.04-1.51-7.16-2.56-12.71-3.55,11.71,0,23.42,0,35.12,0,11.71,0,23.42,0,35.13,0,1.48,0,2.87,0,4.18,0,9.72-.04,14.61-.4,17.08-3.52.07-.09.14-.19.21-.29.33-.46.61-.98.85-1.55.27-.65.49-1.38.67-2.2.25-1.13.42-2.41.53-3.9.11-1.38.17-2.92.2-4.65.02-1.15.04-2.39.04-3.71,0-1.32,0-2.74,0-4.24,0-19.94-.08-39.87.04-59.81.05-8.35,2.11-12.66,7.56-14.46.61-.2,1.25-.37,1.94-.51.21-.04.43-.09.65-.12,1.59-.27,3.39-.41,5.44-.42,3.43-.02,6.87-.02,10.3-.04,10.25-.03,20.51-.05,30.76-.02,3.42,0,6.07.28,8.1.98.41.14.79.3,1.15.47.64.32,1.2.7,1.7,1.14.06.05.12.09.17.14,2.16,2.03,2.99,5.39,3.15,10.74.11,3.42.22,6.84.32,10.26.31,10.26.58,20.52.59,30.77.03,35.41.04,70.82.06,106.22.03,70.82.05,141.63.06,212.45,0,10.85-1.01,15.59-6.35,17.59-.81.3-1.69.56-2.71.75-2.58.48-5.88.62-10.08.63-12.91.01-25.82.02-38.73.03-25.77.02-51.54.03-77.32,0-2.38,0-4.37-.05-6.01-.21-1.1-.1-2.04-.26-2.86-.48-.82-.22-1.5-.51-2.08-.89-1.45-.94-2.21-2.42-2.61-4.75-.32-1.86-.41-4.27-.42-7.37-.02-5.36.14-10.72-.02-16.07Zm183.69,211.19c-139.58,0-254.59-48.4-254.59-94.17l507.8.17c0,45.77-113.63,94-253.21,94Zm343.53-192.98c0,6.07-4.92,11-11,11h-46.1c-6.07,0-11-4.93-11-11v-210.06c0-6.08,4.93-11,11-11h46.1c6.08,0,11,4.92,11,11v210.06Zm0-315.85c0,6.08-4.92,11-11,11h-46.1c-6.07,0-11-4.92-11-11v-53.8c0-6.08,4.93-11,11-11h46.1c6.08,0,11,4.92,11,11v53.8Zm165.54,90.36c0,6.08-4.92,11-11,11h-28.36c-2.21,0-4,1.79-4,4v210.49c0,6.08-4.92,11-11,11h-46.1c-6.07,0-11-4.92-11-11v-210.49c0-2.21-1.79-4-4-4h-19.39c-6.08,0-11-4.92-11-11v-45.76c0-6.07,4.92-11,11-11h19.39c2.21,0,4-1.79,4-4v-83.52c0-6.07,4.93-11,11-11h46.1c6.08,0,11,4.93,11,11v83.52c0,2.21,1.79,4,4,4h28.36c6.08,0,11,4.93,11,11v45.76Z"/>
      <path class="cls-2" d="m369.97,462.6c.06.28.12.56.17.84.3,1.51.55,3.06.74,4.63.23,1.95.42,3.9.57,5.86,1.1,13.7.65,27.58.69,41.37.02,6.37,1.98,9.27,8.75,8.98,4.6-.2,9.22-.3,13.84-.3,2.38,0,4.77.03,7.15.08,2.23.05,4.46.12,6.69.21,4.03.17,6.64-.58,8.09-2.67,1.02-1.47,1.46-3.58,1.39-6.52-.09-3.64-.14-7.29-.18-10.93-.1-10.94.02-21.88.24-32.81.48-23.73,15.47-41.97,37.13-47.2,1.61-.39,3.25-.7,4.92-.94,1.62-.23,3.27-.39,4.94-.48.93-.05,1.86-.08,2.81-.09.03,0,.06,0,.08,0,12.01-.07,24.03-.22,36.04-.11,1.13.01,2.25.04,3.38.06v.35h73.89v-97.48c0-25.25,20.47-45.71,45.71-45.71h46.14c25.25,0,45.71,20.47,45.71,45.71l-.37,198.73c22.91-.21,49.15-.8,72.05-.79,3.13,0,5.48-.41,7.1-1.51.93-.63,1.62-1.48,2.08-2.61.46-1.11.7-2.5.73-4.2,0-.02,0-.04,0-.06,0-.43,0-.88-.02-1.36-.49-12.18-.15-24.4-.12-36.6.03-11.71,2.44-21.79,6.98-29.98.41-.74.84-1.47,1.29-2.19.9-1.43,1.86-2.79,2.9-4.09.52-.65,1.05-1.28,1.6-1.9,9.37-10.48,23.63-16.21,41.85-16.24,60.12-.1,120.25-.06,180.37-.05,16.59,0,33.41-1.65,49.18,7.22.28-.77.52-1.34.69-1.76.16-.38.27-.65.34-.87.06-.19.09-.35.08-.51,0-.21-.06-.42-.1-.63-.1-.66-.27-1.32-.44-1.98-5.72-21.85-12.85-42.91-21.3-63.24-1.25-3.02-2.53-6.02-3.84-9-1.56-3.54-3.17-7.04-4.81-10.53-2.64-5.63-5.38-11.2-8.24-16.71-1.9-3.67-3.87-7.31-5.86-10.93-2.86-5.18-5.8-10.31-8.84-15.39-3.88-6.47-7.92-12.85-12.1-19.15-15.34-23.09-32.72-45.06-52.01-65.95-16.43-17.79-33.87-34.2-52.29-49.27-18.61-15.22-38.25-29.04-58.91-41.47-15.36-9.24-31.26-17.74-47.76-25.43-31.16-14.53-62.83-25.48-94.98-32.81-3.18-.72-6.36-1.41-9.55-2.07-9.96-2.04-19.97-3.75-30.03-5.09-5.02-.67-10.05-1.26-15.1-1.75-.55-.05-1.1-.11-1.65-.16-39.72-3.75-80.12-2.08-121.13,5.17-92.08,16.27-172.37,57.06-241.19,118.89-4.59,4.12-9.13,8.34-13.61,12.65-1.98,1.9-3.95,3.82-5.9,5.75-26.89,26.61-50.33,55.4-70.24,86.38-15.73,24.47-29.25,50.3-40.51,77.52-2.37,5.73-4.65,11.51-6.82,17.36-3.78,10.2-7.26,20.58-10.42,31.16-3.07,10.26-3.21,12.18,4.63,12.53,1.33.06,2.87.08,4.69.08,26.94,0,53.87-.01,80.81-.02,0,0,.02,0,.02,0,26.93,0,53.86,0,80.79.05,23.99.04,43.33,13.87,49.92,35.65.43,1.41.79,2.86,1.11,4.33Zm510.71-145.06c.1-10.06,5.49-15.5,15.54-15.61,17.23-.19,34.46-.18,51.68,0,9.38.1,15.23,5.7,15.37,15.12.27,18.01.27,36.02.02,54.03-.14,9.96-5.27,14.6-15.3,14.7-8.35.08-16.71.02-25.06.02v-.13c-8.61,0-17.23.2-25.84-.05-11.33-.33-16.34-5.33-16.43-16.4-.14-17.23-.15-34.46.02-51.68Zm-74.51-40.57c.86-6.87,4.68-10.92,11.91-10.97,8.62-.06,17.23-.1,25.85.03,7.21.11,11.15,3.74,11.17,11.16.02,7.31.13,14.62-.01,21.93-.19,9.72-3.55,12.93-13.42,13.11-3.65.06-7.31.01-10.97,0-24.35-.19-24.71-.55-24.76-25.08,0-3.39-.19-6.82.23-10.17Zm-13.68,88.46c.18,6.51.14,13.03,0,19.54-.23,10.34-3.42,13.43-13.72,13.57-3.13.04-6.26,0-9.38.01q-24.28,0-24.34-24.4c0-2.87-.09-5.74.07-8.6.45-8.1,3.63-11.45,11.55-11.66,8.07-.22,16.16-.22,24.24.01,8.07.23,11.37,3.57,11.6,11.52Zm-104.89-163.81c.13-8.59,4.13-13.73,12.57-13.97,19.08-.54,38.18-.49,57.26-.17,6.8.11,12.17,6.26,12.33,13.99.38,18.82.42,37.66.13,56.48-.11,7.38-6.33,13.1-13.99,13.19-18.04.23-36.09.29-54.13-.09-9.07-.19-13.85-5.5-14.04-14.52-.2-9.41-.04-18.83-.04-28.24h-.11c0-8.89-.11-17.79.03-26.68Zm-96.1,5.32c.86-6.87,4.68-10.92,11.91-10.97,8.62-.06,17.23-.1,25.85.03,7.21.11,11.15,3.74,11.17,11.16.02,7.31.13,14.62-.01,21.93-.19,9.72-3.55,12.93-13.42,13.11-3.65.06-7.31.01-10.97,0-24.35-.19-24.71-.55-24.76-25.08,0-3.39-.19-6.82.23-10.17Zm-129.53-7.16c.1-7.25,5.3-12.17,12.75-12.27,18.3-.27,36.62-.31,54.92.05,8.44.16,14,6.03,14.16,14.79.33,18.04.33,36.09.08,54.14-.12,8.81-6.08,14.41-15.13,14.68-9.15.27-18.31.06-27.46.06v-.03c-8.37,0-16.74.14-25.11-.04-9.13-.19-13.84-4.19-14.05-13.31-.45-19.34-.43-38.71-.16-58.06Zm-144.39,121.01c-.35,8.26-4.47,12.56-12.67,12.91-8.08.34-16.19.3-24.28.07-7.81-.22-12-4.46-12.25-12.22-.22-7.04-.16-14.1-.06-21.15.13-8.78,3.58-12.38,12.21-12.77,4.17-.19,8.35-.03,12.53-.03v-.04c2.87,0,5.74-.01,8.62,0,11.65.05,15.63,3.77,15.94,15.22.17,6,.22,12.02-.04,18.01Zm26.37-48.37c-2.35,0-4.7.02-7.05-.01-13.06-.17-16.74-3.85-16.77-16.81-.01-5.75-.12-11.49.05-17.24.24-7.85,4.1-12.5,11.7-12.95,8.59-.51,17.24-.5,25.83-.02,6.58.36,10.5,4.24,10.57,11.21.04,3.92,0,7.83,0,11.75.03,23.06-1,24.08-24.35,24.07Zm22.49,44.18c.23-8.99,5.91-14.08,15.37-14.51,9.13-.42,18.29-.09,27.44-.09v-.07c8.1,0,16.21-.13,24.31.03,9.39.19,15.36,4.94,15.62,14.04.52,18.54.56,37.12-.03,55.66-.3,9.37-5.97,13.85-15.57,13.94-16.47.16-32.94.2-49.41,0-11.52-.14-17.33-5.1-17.71-16.48-.58-17.49-.47-35.03-.02-52.53Z"/>
      <path class="cls-2" d="m616.54,1059.74c139.58,0,253.21-48.23,253.21-94l-507.8-.17c0,45.77,115,94.17,254.59,94.17Z"/>
      <path class="cls-3" d="m384.16,385.6c16.47.19,32.94.15,49.41,0,9.6-.09,15.28-4.57,15.57-13.94.59-18.54.55-37.11.03-55.66-.26-9.1-6.23-13.85-15.62-14.04-8.1-.16-16.21-.03-24.31-.03v.07c-9.15,0-18.31-.33-27.44.09-9.45.44-15.14,5.53-15.37,14.51-.45,17.5-.56,35.03.02,52.53.38,11.37,6.19,16.34,17.71,16.48Z"/>
      <path class="cls-3" d="m687.68,228.3c0,9.41-.15,18.83.04,28.24.19,9.02,4.98,14.33,14.04,14.52,18.04.38,36.09.32,54.13.09,7.65-.1,13.88-5.82,13.99-13.19.29-18.82.25-37.66-.13-56.48-.16-7.74-5.53-13.88-12.33-13.99-19.08-.32-38.19-.37-57.26.17-8.44.24-12.44,5.38-12.57,13.97-.14,8.89-.03,17.78-.03,26.68h.11Z"/>
      <path class="cls-3" d="m897.09,385.63c8.61.25,17.23.05,25.84.05v.13c8.35,0,16.71.07,25.06-.02,10.03-.1,15.16-4.74,15.3-14.7.26-18.01.26-36.02-.02-54.03-.14-9.42-5.99-15.03-15.37-15.12-17.23-.17-34.46-.18-51.68,0-10.05.11-15.44,5.55-15.54,15.61-.17,17.23-.15,34.46-.02,51.68.09,11.07,5.1,16.07,16.43,16.4Z"/>
      <path class="cls-3" d="m476.18,271.15c8.37.18,16.74.04,25.11.04v.03c9.15,0,18.31.21,27.46-.06,9.06-.27,15.01-5.87,15.13-14.68.25-18.04.25-36.1-.08-54.14-.16-8.76-5.72-14.63-14.16-14.79-18.3-.35-36.62-.32-54.92-.05-7.45.11-12.65,5.02-12.75,12.27-.28,19.35-.29,38.71.16,58.06.21,9.13,4.92,13.12,14.05,13.31Z"/>
      <path class="cls-3" d="m830.69,312.22c3.66,0,7.31.06,10.97,0,9.87-.17,13.24-3.38,13.42-13.11.14-7.31.03-14.62.01-21.93-.02-7.42-3.96-11.05-11.17-11.16-8.61-.13-17.23-.09-25.85-.03-7.23.05-11.05,4.1-11.91,10.97-.42,3.35-.24,6.78-.23,10.17.04,24.54.4,24.9,24.76,25.08Z"/>
      <path class="cls-3" d="m616.02,242.2c3.66,0,7.31.06,10.97,0,9.87-.17,13.24-3.38,13.42-13.11.14-7.31.03-14.62.01-21.93-.02-7.42-3.96-11.05-11.17-11.16-8.61-.13-17.23-.09-25.85-.03-7.23.05-11.05,4.1-11.91,10.97-.42,3.35-.24,6.78-.23,10.17.04,24.54.4,24.9,24.76,25.08Z"/>
      <path class="cls-3" d="m301.68,287.56c-2.87-.01-5.74,0-8.62,0v.04c-4.18,0-8.36-.15-12.53.03-8.63.38-12.08,3.99-12.21,12.77-.1,7.05-.17,14.1.06,21.15.25,7.76,4.44,11.99,12.25,12.22,8.09.23,16.2.27,24.28-.07,8.2-.34,12.32-4.65,12.67-12.91.26-5.99.21-12.01.04-18.01-.32-11.45-4.3-15.17-15.94-15.22Z"/>
      <path class="cls-3" d="m368.29,236.6c-.07-6.97-3.99-10.85-10.57-11.21-8.59-.47-17.25-.48-25.83.02-7.6.45-11.46,5.1-11.7,12.95-.17,5.74-.07,11.49-.05,17.24.03,12.96,3.7,16.64,16.77,16.81,2.35.03,4.7.01,7.05.01,23.35,0,24.38-1.01,24.35-24.07,0-3.92.03-7.83,0-11.75Z"/>
      <path class="cls-3" d="m756.65,353.9c-7.92.21-11.1,3.56-11.55,11.66-.16,2.86-.07,5.73-.07,8.6q0,24.33,24.34,24.4c3.13,0,6.26.03,9.38-.01,10.3-.14,13.49-3.24,13.72-13.57.14-6.51.19-13.03,0-19.54-.22-7.95-3.52-11.29-11.6-11.52-8.07-.23-16.16-.23-24.24-.01Z"/>
      <path class="cls-1" d="m818.26,831.76c1.18,0,2.32,0,3.4-.05,2.39-.09,4.53-.31,6.47-.67,1.57-.29,3.03-.65,4.33-1.14,4.89-1.82,7.86-5.14,9.47-10.47.3-.98.57-2.01.77-3.14.17-.9.3-1.85.41-2.85.22-1.99.34-4.18.36-6.58.22-22.72.4-45.44.56-68.17,0-.33,0-.66,0-.98.16-22.77.29-45.55.41-68.32,0-.72-.04-1.45-.06-2.17-.08-2.77-.28-5.54-.51-8.31-.18-2.14-.35-4.29-.46-6.44-.05-.98-.21-1.8-.43-2.54-.47-1.56-1.32-2.66-2.61-3.29-1.14-.56-2.62-.78-4.44-.73-1.98.06-3.96.12-5.94.17-2.04.05-4.08.09-6.12.1-.01,0-.03,0-.05,0-4,.02-8.01-.05-11.99-.29-3.95-.24-7.28-.99-10.06-2.24-6.99-3.14-10.4-9.53-10.57-19.47-.03-1.58-.05-3.17-.06-4.76-.02-1.59-.03-3.18-.03-4.78,0-1.6-.01-3.2-.01-4.81,0-8.07.06-16.38.06-25.33-10.97,0-22.13,0-33.35,0-18.7,0-37.62,0-56.58-.01-4.77,0-8.07-.22-10.37-1.06-.19-.07-.39-.12-.56-.2-3.85-1.7-4.51-5.56-4.52-14.14-.04-46.13-.04-92.27-.05-138.4,0-24.41.06-48.81-.07-73.22,0-.79-.02-1.53-.05-2.24-.26-5.95-1.56-9.22-4.94-10.9-2.27-1.12-5.48-1.53-9.94-1.53-12.2-.02-24.41.1-36.61.21-3.25.03-5.9.23-8.07.71-4.67,1.01-7.08,3.27-8.14,7.78-.52,2.2-.73,4.94-.73,8.33-.01,83.78,0,167.57,0,251.35s-.01,167.57,0,251.35c0,6.53.67,10.46,2.97,12.76,2.29,2.3,6.21,2.96,12.69,2.96,46.13,0,92.27-.09,138.4-.07,1.47,0,2.84,0,4.12,0h.02c13.47.03,16.76-.16,17.52-7.62.04-.35.07-.73.09-1.12.03-.4.05-.82.06-1.26.11-2.96.03-6.8.03-11.78,0-20.89,4.05-24.84,25.14-24.7Zm-46.36-50.61c-.07,15.45-2.4,17.71-17.39,17.72-17.84.01-35.67.05-53.51-.06-11.07-.07-15.02-3.91-15.11-15.07-.17-20.21-.05-40.43-.05-60.64h-.1c0-19.92.2-39.84-.1-59.75-.11-7.58,2.56-10.69,10.38-10.55,19.91.35,39.83.03,59.75.16,10.88.07,14.76,3.19,15.44,14.07.82,13.03.68,26.13.73,39.2.09,24.97.08,49.94-.03,74.91Z"/>
      <path class="cls-1" d="m433.29,871.98c.4,2.33,1.17,3.81,2.61,4.75.58.38,1.27.66,2.08.89.82.22,1.76.37,2.86.48,1.64.16,3.62.2,6.01.21,25.77.02,51.54.01,77.32,0,12.91,0,25.82-.02,38.73-.03,4.2,0,7.5-.15,10.08-.63,1.02-.19,1.9-.45,2.71-.75,5.33-2,6.35-6.74,6.35-17.59-.01-70.82-.03-141.63-.06-212.45-.01-35.41-.03-70.82-.06-106.22,0-10.26-.28-20.52-.59-30.77-.1-3.42-.21-6.84-.32-10.26-.17-5.35-1-8.71-3.15-10.74-.05-.05-.12-.09-.17-.14-.5-.44-1.06-.83-1.7-1.14-.36-.18-.74-.33-1.15-.47-2.03-.7-4.67-.98-8.1-.98-10.25-.03-20.51-.02-30.76.02-3.43.01-6.87.02-10.3.04-2.05.01-3.85.15-5.44.42-.22.04-.44.08-.65.12-.69.14-1.33.31-1.94.51-5.44,1.8-7.51,6.11-7.56,14.46-.12,19.94-.03,39.87-.04,59.81,0,1.51,0,2.92,0,4.24,0,1.32-.02,2.56-.04,3.71-.04,1.73-.1,3.27-.2,4.65-.12,1.49-.29,2.77-.53,3.9-.18.82-.4,1.55-.67,2.2-.24.58-.52,1.09-.85,1.55-.07.1-.14.2-.21.29-2.47,3.11-7.37,3.48-17.08,3.52-1.3,0-2.69,0-4.18,0-11.71,0-23.42,0-35.13,0-11.71,0-23.42,0-35.12,0,5.55.99,9.67,2.03,12.71,3.55,1.22.61,2.26,1.29,3.15,2.07,4.01,3.53,4.95,9.12,4.81,19.24-.07,4.76-.04,9.52-.13,14.28-.12,5.97-1.32,10.6-3.78,14.02-1.4,1.95-3.22,3.51-5.47,4.68-2.82,1.47-6.32,2.34-10.56,2.67-7.7.58-15.49.64-23.19.19-2.53-.15-4.56.04-6.15.63-.32.12-.62.25-.9.4-2.83,1.49-3.96,4.61-3.89,9.74.19,14.11.25,28.23.25,42.34v.06h0c0,14.14-.03,28.27,0,42.4.02,11.9,0,23.8.02,35.71s.05,23.8.18,35.7c.11,10.02,4.15,15.79,12.03,17.73.46.11.93.21,1.41.29.54.1,1.09.18,1.66.24,1.18.13,2.42.21,3.74.21,2.38,0,4.76-.06,7.14-.09,2.38-.03,4.76-.03,7.14.08,10.74.51,16.35,6.21,16.66,16.85.16,5.35,0,10.71.02,16.07.01,3.1.1,5.51.42,7.37Zm20.98-200.95c.02-16.3,1.8-18.08,17.67-18.1,9.21-.01,18.44.23,27.64-.09,7.75-.28,10.58,3.19,10.49,10.7-.23,20.51-.08,41.02-.08,61.53h.04c0,20.21.06,40.42-.02,60.64-.05,10.71-2.46,13.04-13.21,13.14-9.21.08-18.43.15-27.64-.02-10.4-.2-14.03-3.52-14.62-13.71-.43-7.41-.28-14.85-.28-22.28-.02-30.59-.02-61.19.03-91.78Z"/>
      <path class="cls-1" d="m1114.6,584.51h-28.36c-2.21,0-4-1.79-4-4v-83.52c0-6.07-4.92-11-11-11h-46.1c-6.07,0-11,4.93-11,11v83.52c0,2.21-1.79,4-4,4h-19.39c-6.08,0-11,4.93-11,11v45.76c0,6.08,4.92,11,11,11h19.39c2.21,0,4,1.79,4,4v210.49c0,6.08,4.93,11,11,11h46.1c6.08,0,11-4.92,11-11v-210.49c0-2.21,1.79-4,4-4h28.36c6.08,0,11-4.92,11-11v-45.76c0-6.07-4.92-11-11-11Z"/>
      <path class="cls-1" d="m240.99,584.51h-19.39c-2.21,0-4-1.79-4-4v-83.52c0-6.07-4.93-11-11-11h-46.1c-6.08,0-11,4.93-11,11v83.52c0,2.21-1.79,4-4,4h-28.36c-6.07,0-11,4.93-11,11v45.76c0,6.08,4.93,11,11,11h28.36c2.21,0,4,1.79,4,4v210.49c0,6.08,4.92,11,11,11h46.1c6.07,0,11-4.92,11-11v-210.49c0-2.21,1.79-4,4-4h19.39c6.08,0,11-4.92,11-11v-45.76c0-6.07-4.92-11-11-11Z"/>
      <rect class="cls-1" x="277.45" y="645.7" width="68.1" height="232.06" rx="11" ry="11"/>
      <rect class="cls-1" x="277.45" y="486.11" width="68.1" height="75.8" rx="11" ry="11"/>
      <rect class="cls-1" x="891.97" y="645.7" width="68.1" height="232.06" rx="11" ry="11"/>
      <rect class="cls-1" x="891.97" y="486.11" width="68.1" height="75.8" rx="11" ry="11"/>
    </g>
  </g>
</svg>