<?xml version="1.0" encoding="UTF-8"?>
<svg id="Layer_2" data-name="Layer 2" xmlns="http://www.w3.org/2000/svg" viewBox="0 0 1019.47 535.48">
  <defs>
    <style>
      .cls-1 {
        fill: #fff;
      }

      .cls-2 {
        fill: none;
        stroke: #0d2f18;
        stroke-linecap: round;
        stroke-linejoin: round;
        stroke-width: 120px;
      }
    </style>
  </defs>
  <g id="Wordmark_w_outline" data-name="Wordmark w outline">
    <g>
      <g>
        <path class="cls-1" d="m737.75,316.08c-.18-2.14-.35-4.29-.46-6.44-.05-.98-.21-1.8-.43-2.54-.47-1.56-1.32-2.66-2.61-3.29-1.14-.56-2.62-.78-4.44-.73-1.98.06-3.96.12-5.94.17-2.04.05-4.08.08-6.12.1-.01,0-.03,0-.05,0-4,.02-8.01-.05-11.99-.29-3.95-.24-7.28-.99-10.06-2.24-6.99-3.14-10.4-9.53-10.57-19.47-.03-1.58-.05-3.17-.06-4.76-.02-1.59-.03-3.18-.03-4.78,0-1.6-.01-3.2-.01-4.81,0-8.07.06-16.38.06-25.33-10.97,0-22.13,0-33.35,0-18.7,0-37.62,0-56.58-.01-4.77,0-8.07-.22-10.37-1.06-.18-.07-.39-.12-.56-.2-3.85-1.7-4.51-5.56-4.52-14.14-.04-46.13-.04-92.27-.05-138.4,0-24.41.06-48.81-.07-73.22,0-.79-.02-1.53-.05-2.24-.26-5.95-1.56-9.22-4.94-10.9-2.27-1.12-5.48-1.53-9.94-1.53-12.2-.02-24.41.1-36.61.21-3.25.03-5.9.24-8.07.71-4.67,1.01-7.07,3.27-8.14,7.78-.52,2.2-.73,4.94-.73,8.33-.01,83.78,0,167.56,0,251.35s-.01,167.57,0,251.35c0,6.53.67,10.46,2.97,12.76,2.29,2.3,6.21,2.96,12.69,2.96,46.13,0,92.27-.08,138.4-.07,1.47,0,2.84,0,4.12,0h.02c13.47.03,16.76-.16,17.52-7.62.04-.35.07-.73.09-1.12.03-.4.05-.82.06-1.26.11-2.96.03-6.8.03-11.78,0-20.89,4.06-24.84,25.14-24.7,1.18,0,2.32,0,3.4-.05,2.39-.09,4.53-.31,6.47-.67,1.57-.29,3.03-.65,4.33-1.14,4.89-1.82,7.86-5.14,9.47-10.47.3-.98.57-2.01.77-3.14.17-.9.3-1.85.41-2.85.22-1.99.34-4.18.36-6.58.22-22.72.4-45.44.56-68.17,0-.33,0-.66,0-.98.16-22.77.29-45.55.41-68.32,0-.72-.04-1.45-.06-2.17-.08-2.77-.28-5.54-.51-8.31Zm-72,122.23c-.07,15.45-2.4,17.71-17.39,17.72-17.84.01-35.67.05-53.51-.06-11.07-.07-15.02-3.91-15.11-15.07-.17-20.21-.05-40.43-.05-60.64h-.1c0-19.92.2-39.84-.1-59.75-.11-7.59,2.56-10.69,10.38-10.55,19.91.35,39.83.03,59.75.16,10.88.07,14.76,3.19,15.44,14.07.82,13.03.68,26.13.73,39.21.09,24.97.08,49.94-.03,74.91Z"/>
        <path class="cls-1" d="m475.79,197.79c0-10.26-.28-20.52-.59-30.77-.1-3.42-.21-6.84-.32-10.26-.17-5.35-1-8.71-3.15-10.74-.05-.05-.12-.09-.17-.14-.5-.44-1.06-.83-1.7-1.14-.36-.18-.74-.33-1.14-.47-2.03-.7-4.67-.98-8.1-.98-10.25-.03-20.51-.02-30.76.02-3.43.01-6.87.02-10.3.04-2.05.01-3.85.15-5.44.42-.22.04-.44.08-.65.12-.69.14-1.33.31-1.94.51-5.44,1.8-7.51,6.11-7.56,14.46-.12,19.94-.03,39.87-.04,59.81,0,1.51,0,2.92,0,4.24s-.02,2.56-.04,3.71c-.04,1.73-.1,3.27-.2,4.65-.11,1.49-.29,2.77-.53,3.9-.18.82-.4,1.55-.67,2.2-.24.58-.52,1.09-.85,1.55-.07.1-.14.2-.21.29-2.47,3.11-7.37,3.48-17.09,3.52-1.3,0-2.69,0-4.18,0-11.71,0-23.42,0-35.13,0-11.71,0-23.42,0-35.12,0,5.55.99,9.67,2.03,12.71,3.55,1.22.61,2.26,1.29,3.15,2.07,4.01,3.52,4.95,9.12,4.81,19.24-.07,4.76-.04,9.52-.13,14.28-.12,5.97-1.32,10.6-3.78,14.02-1.4,1.95-3.22,3.5-5.47,4.68-2.82,1.47-6.32,2.34-10.56,2.67-7.7.58-15.49.64-23.19.19-2.53-.15-4.56.04-6.15.63-.32.12-.62.25-.9.4-2.83,1.49-3.95,4.61-3.89,9.74.19,14.11.25,28.23.25,42.34v.06h0c0,14.14-.03,28.27,0,42.4.02,11.9,0,23.8.02,35.71.01,11.9.05,23.8.18,35.71.11,10.02,4.15,15.79,12.03,17.73.46.11.93.21,1.41.29.54.1,1.09.18,1.66.24,1.18.13,2.42.21,3.74.21,2.38,0,4.76-.06,7.14-.09,2.38-.03,4.76-.03,7.14.08,10.74.51,16.35,6.21,16.66,16.85.16,5.35,0,10.71.02,16.07.01,3.1.1,5.51.42,7.37.4,2.33,1.17,3.81,2.61,4.75.58.38,1.27.66,2.08.89s1.76.37,2.86.48c1.64.16,3.63.2,6.01.21,25.77.02,51.54.01,77.32,0,12.91,0,25.82-.02,38.73-.03,4.2,0,7.5-.15,10.09-.63,1.02-.19,1.9-.45,2.71-.75,5.33-2,6.35-6.74,6.35-17.59-.01-70.82-.03-141.63-.06-212.45-.01-35.41-.03-70.82-.06-106.22Zm-71.93,184.43h.03c0,20.21.06,40.42-.02,60.64-.05,10.71-2.46,13.04-13.21,13.14-9.21.08-18.43.15-27.64-.02-10.4-.2-14.03-3.52-14.62-13.71-.43-7.41-.28-14.85-.28-22.28-.02-30.59-.02-61.19.03-91.78.02-16.3,1.8-18.08,17.67-18.1,9.21-.01,18.44.23,27.64-.1,7.75-.28,10.58,3.19,10.49,10.7-.23,20.51-.08,41.02-.08,61.53Z"/>
        <path class="cls-1" d="m1008.47,241.67h-28.36c-2.21,0-4-1.79-4-4v-83.52c0-6.08-4.92-11-11-11h-46.1c-6.08,0-11,4.92-11,11v83.52c0,2.21-1.79,4-4,4h-19.39c-6.08,0-11,4.92-11,11v45.76c0,6.08,4.92,11,11,11h19.39c2.21,0,4,1.79,4,4v210.49c0,6.08,4.92,11,11,11h46.1c6.08,0,11-4.92,11-11v-210.49c0-2.21,1.79-4,4-4h28.36c6.08,0,11-4.92,11-11v-45.76c0-6.08-4.92-11-11-11Z"/>
        <path class="cls-1" d="m134.85,241.67h-19.39c-2.21,0-4-1.79-4-4v-83.52c0-6.08-4.92-11-11-11h-46.1c-6.08,0-11,4.92-11,11v83.52c0,2.21-1.79,4-4,4H11c-6.07,0-11,4.92-11,11v45.76c0,6.08,4.93,11,11,11h28.36c2.21,0,4,1.79,4,4v210.49c0,6.08,4.92,11,11,11h46.1c6.08,0,11-4.92,11-11v-210.49c0-2.21,1.79-4,4-4h19.39c6.08,0,11-4.92,11-11v-45.76c0-6.08-4.92-11-11-11Z"/>
        <rect class="cls-1" x="171.32" y="302.86" width="68.1" height="232.06" rx="11" ry="11"/>
        <rect class="cls-1" x="171.32" y="143.27" width="68.1" height="75.8" rx="11" ry="11"/>
        <rect class="cls-1" x="785.83" y="302.86" width="68.1" height="232.06" rx="11" ry="11"/>
        <rect class="cls-1" x="785.83" y="143.27" width="68.1" height="75.8" rx="11" ry="11"/>
      </g>
      <g>
        <path class="cls-2" d="m737.75,316.08c-.18-2.14-.35-4.29-.46-6.44-.05-.98-.21-1.8-.43-2.54-.47-1.56-1.32-2.66-2.61-3.29-1.14-.56-2.62-.78-4.44-.73-1.98.06-3.96.12-5.94.17-2.04.05-4.08.08-6.12.1-.01,0-.03,0-.05,0-4,.02-8.01-.05-11.99-.29-3.95-.24-7.28-.99-10.06-2.24-6.99-3.14-10.4-9.53-10.57-19.47-.03-1.58-.05-3.17-.06-4.76-.02-1.59-.03-3.18-.03-4.78,0-1.6-.01-3.2-.01-4.81,0-8.07.06-16.38.06-25.33-10.97,0-22.13,0-33.35,0-18.7,0-37.62,0-56.58-.01-4.77,0-8.07-.22-10.37-1.06-.18-.07-.39-.12-.56-.2-3.85-1.7-4.51-5.56-4.52-14.14-.04-46.13-.04-92.27-.05-138.4,0-24.41.06-48.81-.07-73.22,0-.79-.02-1.53-.05-2.24-.26-5.95-1.56-9.22-4.94-10.9-2.27-1.12-5.48-1.53-9.94-1.53-12.2-.02-24.41.1-36.61.21-3.25.03-5.9.24-8.07.71-4.67,1.01-7.07,3.27-8.14,7.78-.52,2.2-.73,4.94-.73,8.33-.01,83.78,0,167.56,0,251.35s-.01,167.57,0,251.35c0,6.53.67,10.46,2.97,12.76,2.29,2.3,6.21,2.96,12.69,2.96,46.13,0,92.27-.08,138.4-.07,1.47,0,2.84,0,4.12,0h.02c13.47.03,16.76-.16,17.52-7.62.04-.35.07-.73.09-1.12.03-.4.05-.82.06-1.26.11-2.96.03-6.8.03-11.78,0-20.89,4.06-24.84,25.14-24.7,1.18,0,2.32,0,3.4-.05,2.39-.09,4.53-.31,6.47-.67,1.57-.29,3.03-.65,4.33-1.14,4.89-1.82,7.86-5.14,9.47-10.47.3-.98.57-2.01.77-3.14.17-.9.3-1.85.41-2.85.22-1.99.34-4.18.36-6.58.22-22.72.4-45.44.56-68.17,0-.33,0-.66,0-.98.16-22.77.29-45.55.41-68.32,0-.72-.04-1.45-.06-2.17-.08-2.77-.28-5.54-.51-8.31Zm-72,122.23c-.07,15.45-2.4,17.71-17.39,17.72-17.84.01-35.67.05-53.51-.06-11.07-.07-15.02-3.91-15.11-15.07-.17-20.21-.05-40.43-.05-60.64h-.1c0-19.92.2-39.84-.1-59.75-.11-7.59,2.56-10.69,10.38-10.55,19.91.35,39.83.03,59.75.16,10.88.07,14.76,3.19,15.44,14.07.82,13.03.68,26.13.73,39.21.09,24.97.08,49.94-.03,74.91Z"/>
        <path class="cls-2" d="m475.79,197.79c0-10.26-.28-20.52-.59-30.77-.1-3.42-.21-6.84-.32-10.26-.17-5.35-1-8.71-3.15-10.74-.05-.05-.12-.09-.17-.14-.5-.44-1.06-.83-1.7-1.14-.36-.18-.74-.33-1.14-.47-2.03-.7-4.67-.98-8.1-.98-10.25-.03-20.51-.02-30.76.02-3.43.01-6.87.02-10.3.04-2.05.01-3.85.15-5.44.42-.22.04-.44.08-.65.12-.69.14-1.33.31-1.94.51-5.44,1.8-7.51,6.11-7.56,14.46-.12,19.94-.03,39.87-.04,59.81,0,1.51,0,2.92,0,4.24s-.02,2.56-.04,3.71c-.04,1.73-.1,3.27-.2,4.65-.11,1.49-.29,2.77-.53,3.9-.18.82-.4,1.55-.67,2.2-.24.58-.52,1.09-.85,1.55-.07.1-.14.2-.21.29-2.47,3.11-7.37,3.48-17.09,3.52-1.3,0-2.69,0-4.18,0-11.71,0-23.42,0-35.13,0-11.71,0-23.42,0-35.12,0,5.55.99,9.67,2.03,12.71,3.55,1.22.61,2.26,1.29,3.15,2.07,4.01,3.52,4.95,9.12,4.81,19.24-.07,4.76-.04,9.52-.13,14.28-.12,5.97-1.32,10.6-3.78,14.02-1.4,1.95-3.22,3.5-5.47,4.68-2.82,1.47-6.32,2.34-10.56,2.67-7.7.58-15.49.64-23.19.19-2.53-.15-4.56.04-6.15.63-.32.12-.62.25-.9.4-2.83,1.49-3.95,4.61-3.89,9.74.19,14.11.25,28.23.25,42.34v.06h0c0,14.14-.03,28.27,0,42.4.02,11.9,0,23.8.02,35.71.01,11.9.05,23.8.18,35.71.11,10.02,4.15,15.79,12.03,17.73.46.11.93.21,1.41.29.54.1,1.09.18,1.66.24,1.18.13,2.42.21,3.74.21,2.38,0,4.76-.06,7.14-.09,2.38-.03,4.76-.03,7.14.08,10.74.51,16.35,6.21,16.66,16.85.16,5.35,0,10.71.02,16.07.01,3.1.1,5.51.42,7.37.4,2.33,1.17,3.81,2.61,4.75.58.38,1.27.66,2.08.89s1.76.37,2.86.48c1.64.16,3.63.2,6.01.21,25.77.02,51.54.01,77.32,0,12.91,0,25.82-.02,38.73-.03,4.2,0,7.5-.15,10.09-.63,1.02-.19,1.9-.45,2.71-.75,5.33-2,6.35-6.74,6.35-17.59-.01-70.82-.03-141.63-.06-212.45-.01-35.41-.03-70.82-.06-106.22Zm-71.93,184.43h.03c0,20.21.06,40.42-.02,60.64-.05,10.71-2.46,13.04-13.21,13.14-9.21.08-18.43.15-27.64-.02-10.4-.2-14.03-3.52-14.62-13.71-.43-7.41-.28-14.85-.28-22.28-.02-30.59-.02-61.19.03-91.78.02-16.3,1.8-18.08,17.67-18.1,9.21-.01,18.44.23,27.64-.1,7.75-.28,10.58,3.19,10.49,10.7-.23,20.51-.08,41.02-.08,61.53Z"/>
        <path class="cls-2" d="m1008.47,241.67h-28.36c-2.21,0-4-1.79-4-4v-83.52c0-6.08-4.92-11-11-11h-46.1c-6.08,0-11,4.92-11,11v83.52c0,2.21-1.79,4-4,4h-19.39c-6.08,0-11,4.92-11,11v45.76c0,6.08,4.92,11,11,11h19.39c2.21,0,4,1.79,4,4v210.49c0,6.08,4.92,11,11,11h46.1c6.08,0,11-4.92,11-11v-210.49c0-2.21,1.79-4,4-4h28.36c6.08,0,11-4.92,11-11v-45.76c0-6.08-4.92-11-11-11Z"/>
        <path class="cls-2" d="m134.85,241.67h-19.39c-2.21,0-4-1.79-4-4v-83.52c0-6.08-4.92-11-11-11h-46.1c-6.08,0-11,4.92-11,11v83.52c0,2.21-1.79,4-4,4H11c-6.07,0-11,4.92-11,11v45.76c0,6.08,4.93,11,11,11h28.36c2.21,0,4,1.79,4,4v210.49c0,6.08,4.92,11,11,11h46.1c6.08,0,11-4.92,11-11v-210.49c0-2.21,1.79-4,4-4h19.39c6.08,0,11-4.92,11-11v-45.76c0-6.08-4.92-11-11-11Z"/>
        <rect class="cls-2" x="171.32" y="302.86" width="68.1" height="232.06" rx="11" ry="11"/>
        <rect class="cls-2" x="171.32" y="143.27" width="68.1" height="75.8" rx="11" ry="11"/>
        <rect class="cls-2" x="785.83" y="302.86" width="68.1" height="232.06" rx="11" ry="11"/>
        <rect class="cls-2" x="785.83" y="143.27" width="68.1" height="75.8" rx="11" ry="11"/>
      </g>
      <g>
        <path class="cls-1" d="m737.75,316.08c-.18-2.14-.35-4.29-.46-6.44-.05-.98-.21-1.8-.43-2.54-.47-1.56-1.32-2.66-2.61-3.29-1.14-.56-2.62-.78-4.44-.73-1.98.06-3.96.12-5.94.17-2.04.05-4.08.08-6.12.1-.01,0-.03,0-.05,0-4,.02-8.01-.05-11.99-.29-3.95-.24-7.28-.99-10.06-2.24-6.99-3.14-10.4-9.53-10.57-19.47-.03-1.58-.05-3.17-.06-4.76-.02-1.59-.03-3.18-.03-4.78,0-1.6-.01-3.2-.01-4.81,0-8.07.06-16.38.06-25.33-10.97,0-22.13,0-33.35,0-18.7,0-37.62,0-56.58-.01-4.77,0-8.07-.22-10.37-1.06-.18-.07-.39-.12-.56-.2-3.85-1.7-4.51-5.56-4.52-14.14-.04-46.13-.04-92.27-.05-138.4,0-24.41.06-48.81-.07-73.22,0-.79-.02-1.53-.05-2.24-.26-5.95-1.56-9.22-4.94-10.9-2.27-1.12-5.48-1.53-9.94-1.53-12.2-.02-24.41.1-36.61.21-3.25.03-5.9.24-8.07.71-4.67,1.01-7.07,3.27-8.14,7.78-.52,2.2-.73,4.94-.73,8.33-.01,83.78,0,167.56,0,251.35s-.01,167.57,0,251.35c0,6.53.67,10.46,2.97,12.76,2.29,2.3,6.21,2.96,12.69,2.96,46.13,0,92.27-.08,138.4-.07,1.47,0,2.84,0,4.12,0h.02c13.47.03,16.76-.16,17.52-7.62.04-.35.07-.73.09-1.12.03-.4.05-.82.06-1.26.11-2.96.03-6.8.03-11.78,0-20.89,4.06-24.84,25.14-24.7,1.18,0,2.32,0,3.4-.05,2.39-.09,4.53-.31,6.47-.67,1.57-.29,3.03-.65,4.33-1.14,4.89-1.82,7.86-5.14,9.47-10.47.3-.98.57-2.01.77-3.14.17-.9.3-1.85.41-2.85.22-1.99.34-4.18.36-6.58.22-22.72.4-45.44.56-68.17,0-.33,0-.66,0-.98.16-22.77.29-45.55.41-68.32,0-.72-.04-1.45-.06-2.17-.08-2.77-.28-5.54-.51-8.31Zm-72,122.23c-.07,15.45-2.4,17.71-17.39,17.72-17.84.01-35.67.05-53.51-.06-11.07-.07-15.02-3.91-15.11-15.07-.17-20.21-.05-40.43-.05-60.64h-.1c0-19.92.2-39.84-.1-59.75-.11-7.59,2.56-10.69,10.38-10.55,19.91.35,39.83.03,59.75.16,10.88.07,14.76,3.19,15.44,14.07.82,13.03.68,26.13.73,39.21.09,24.97.08,49.94-.03,74.91Z"/>
        <path class="cls-1" d="m475.79,197.79c0-10.26-.28-20.52-.59-30.77-.1-3.42-.21-6.84-.32-10.26-.17-5.35-1-8.71-3.15-10.74-.05-.05-.12-.09-.17-.14-.5-.44-1.06-.83-1.7-1.14-.36-.18-.74-.33-1.14-.47-2.03-.7-4.67-.98-8.1-.98-10.25-.03-20.51-.02-30.76.02-3.43.01-6.87.02-10.3.04-2.05.01-3.85.15-5.44.42-.22.04-.44.08-.65.12-.69.14-1.33.31-1.94.51-5.44,1.8-7.51,6.11-7.56,14.46-.12,19.94-.03,39.87-.04,59.81,0,1.51,0,2.92,0,4.24s-.02,2.56-.04,3.71c-.04,1.73-.1,3.27-.2,4.65-.11,1.49-.29,2.77-.53,3.9-.18.82-.4,1.55-.67,2.2-.24.58-.52,1.09-.85,1.55-.07.1-.14.2-.21.29-2.47,3.11-7.37,3.48-17.09,3.52-1.3,0-2.69,0-4.18,0-11.71,0-23.42,0-35.13,0-11.71,0-23.42,0-35.12,0,5.55.99,9.67,2.03,12.71,3.55,1.22.61,2.26,1.29,3.15,2.07,4.01,3.52,4.95,9.12,4.81,19.24-.07,4.76-.04,9.52-.13,14.28-.12,5.97-1.32,10.6-3.78,14.02-1.4,1.95-3.22,3.5-5.47,4.68-2.82,1.47-6.32,2.34-10.56,2.67-7.7.58-15.49.64-23.19.19-2.53-.15-4.56.04-6.15.63-.32.12-.62.25-.9.4-2.83,1.49-3.95,4.61-3.89,9.74.19,14.11.25,28.23.25,42.34v.06h0c0,14.14-.03,28.27,0,42.4.02,11.9,0,23.8.02,35.71.01,11.9.05,23.8.18,35.71.11,10.02,4.15,15.79,12.03,17.73.46.11.93.21,1.41.29.54.1,1.09.18,1.66.24,1.18.13,2.42.21,3.74.21,2.38,0,4.76-.06,7.14-.09,2.38-.03,4.76-.03,7.14.08,10.74.51,16.35,6.21,16.66,16.85.16,5.35,0,10.71.02,16.07.01,3.1.1,5.51.42,7.37.4,2.33,1.17,3.81,2.61,4.75.58.38,1.27.66,2.08.89s1.76.37,2.86.48c1.64.16,3.63.2,6.01.21,25.77.02,51.54.01,77.32,0,12.91,0,25.82-.02,38.73-.03,4.2,0,7.5-.15,10.09-.63,1.02-.19,1.9-.45,2.71-.75,5.33-2,6.35-6.74,6.35-17.59-.01-70.82-.03-141.63-.06-212.45-.01-35.41-.03-70.82-.06-106.22Zm-71.93,184.43h.03c0,20.21.06,40.42-.02,60.64-.05,10.71-2.46,13.04-13.21,13.14-9.21.08-18.43.15-27.64-.02-10.4-.2-14.03-3.52-14.62-13.71-.43-7.41-.28-14.85-.28-22.28-.02-30.59-.02-61.19.03-91.78.02-16.3,1.8-18.08,17.67-18.1,9.21-.01,18.44.23,27.64-.1,7.75-.28,10.58,3.19,10.49,10.7-.23,20.51-.08,41.02-.08,61.53Z"/>
        <path class="cls-1" d="m1008.47,241.67h-28.36c-2.21,0-4-1.79-4-4v-83.52c0-6.08-4.92-11-11-11h-46.1c-6.08,0-11,4.92-11,11v83.52c0,2.21-1.79,4-4,4h-19.39c-6.08,0-11,4.92-11,11v45.76c0,6.08,4.92,11,11,11h19.39c2.21,0,4,1.79,4,4v210.49c0,6.08,4.92,11,11,11h46.1c6.08,0,11-4.92,11-11v-210.49c0-2.21,1.79-4,4-4h28.36c6.08,0,11-4.92,11-11v-45.76c0-6.08-4.92-11-11-11Z"/>
        <path class="cls-1" d="m134.85,241.67h-19.39c-2.21,0-4-1.79-4-4v-83.52c0-6.08-4.92-11-11-11h-46.1c-6.08,0-11,4.92-11,11v83.52c0,2.21-1.79,4-4,4H11c-6.07,0-11,4.92-11,11v45.76c0,6.08,4.93,11,11,11h28.36c2.21,0,4,1.79,4,4v210.49c0,6.08,4.92,11,11,11h46.1c6.08,0,11-4.92,11-11v-210.49c0-2.21,1.79-4,4-4h19.39c6.08,0,11-4.92,11-11v-45.76c0-6.08-4.92-11-11-11Z"/>
        <rect class="cls-1" x="171.32" y="302.86" width="68.1" height="232.06" rx="11" ry="11"/>
        <rect class="cls-1" x="171.32" y="143.27" width="68.1" height="75.8" rx="11" ry="11"/>
        <rect class="cls-1" x="785.83" y="302.86" width="68.1" height="232.06" rx="11" ry="11"/>
        <rect class="cls-1" x="785.83" y="143.27" width="68.1" height="75.8" rx="11" ry="11"/>
      </g>
    </g>
  </g>
</svg>
